<?xml version="1.0" encoding="UTF-8"?>
<svg id="Layer_2" data-name="Layer 2" xmlns="http://www.w3.org/2000/svg" viewBox="0 0 1732.11 210.98">
  <defs>
    <style>
      .cls-1 {
        fill: #f15a2b;
      }

      .cls-2 {
        fill: #2d2a5e;
      }
    </style>
  </defs>
  <polygon class="cls-2" points="215.93 3.66 126.81 209.32 89.41 209.32 0 3.66 41.2 3.66 109.2 162.2 177.94 3.66 215.93 3.66"/>
  <path class="cls-2" d="M353.85,3.66h-37.4l-92.05,205.66h39.16l20.25-47.59h102.3l20.33,47.59h39.74L353.85,3.66Zm-57.29,128.1l38.31-90.01,38.44,90.01h-76.75Z"/>
  <path class="cls-2" d="M494.39,209.32V3.66h37.99V177.01h106.94v32.32h-144.93Z"/>
  <polygon class="cls-2" points="845.03 177.3 845.03 209.32 691.63 209.32 691.63 3.66 840.94 3.66 840.94 35.68 729.61 35.68 729.61 89.16 828.38 89.16 828.38 120.59 729.61 120.59 729.61 177.3 845.03 177.3"/>
  <polygon class="cls-2" points="1091.35 3.66 1091.35 209.32 1060.09 209.32 947.3 70.08 947.3 209.32 909.61 209.32 909.61 3.66 940.87 3.66 1053.66 142.9 1053.66 3.66 1091.35 3.66"/>
  <path class="cls-2" d="M1209.99,209.32V35.98h-67.79V3.66h173.57V35.98h-67.79V209.32h-37.99Z"/>
  <path class="cls-2" d="M1366.6,209.32V3.66h37.99V209.32h-37.99Z"/>
  <path class="cls-2" d="M1543.19,209.32c-15.53,0-30.4-2.24-44.6-6.71-14.2-4.47-25.47-10.23-33.81-17.28l12.78-28.85c7.95,6.28,17.8,11.52,29.54,15.71,11.74,4.19,23.76,6.28,36.08,6.28,10.41,0,18.84-1.14,25.28-3.43,6.44-2.29,11.17-5.38,14.2-9.28,3.03-3.9,4.55-8.33,4.55-13.28,0-6.09-2.18-11-6.53-14.71-4.36-3.71-9.99-6.66-16.9-8.86-6.92-2.19-14.59-4.24-23.01-6.14-8.43-1.9-16.86-4.14-25.28-6.71-8.43-2.57-16.1-5.9-23.01-10-6.92-4.09-12.55-9.57-16.9-16.43-4.36-6.85-6.53-15.61-6.53-26.28s2.89-20.8,8.66-29.85c5.78-9.04,14.58-16.28,26.42-21.71,11.83-5.43,26.85-8.14,45.03-8.14,11.93,0,23.76,1.53,35.51,4.57,11.74,3.05,21.97,7.43,30.68,13.14l-11.65,28.85c-8.9-5.33-18.09-9.28-27.56-11.85-9.47-2.57-18.56-3.86-27.27-3.86-10.23,0-18.51,1.24-24.86,3.71-6.35,2.48-10.99,5.71-13.92,9.71-2.94,4-4.4,8.57-4.4,13.71,0,6.1,2.13,11,6.39,14.71,4.26,3.71,9.84,6.62,16.76,8.71,6.91,2.1,14.63,4.14,23.15,6.14,8.52,2,17,4.24,25.42,6.71,8.43,2.48,16.09,5.71,23.01,9.71,6.91,4,12.5,9.43,16.76,16.28,4.26,6.86,6.39,15.52,6.39,25.99s-2.89,20.52-8.66,29.56c-5.78,9.05-14.63,16.28-26.56,21.71-11.93,5.43-26.99,8.14-45.17,8.14Z"/>
  <rect class="cls-1" x="1684.22" y="161.43" width="47.89" height="47.89"/>
</svg>